<svg width="200" height="40" viewBox="0 0 200 40" fill="none" xmlns="http://www.w3.org/2000/svg">
<g clip-path="url(#clip0_34_1393)">
<path d="M28.9994 17.4611C28.9994 16.3212 28.6334 15.2504 27.9347 14.3178C28.2008 13.4197 28.2674 12.2798 28.2008 10.9672C28.1676 10.4145 27.735 10 27.2027 10C26.9032 10 24.3746 10.0345 22.9106 11.3817C21.6463 11.1399 20.3154 11.1399 19.0178 11.3817C17.5872 10.0345 15.0585 10 14.7258 10C14.1934 10 13.7609 10.4145 13.7276 10.9672C13.6278 12.2798 13.7276 13.4197 13.9938 14.3178C13.2951 15.285 12.9291 16.3558 12.9291 17.4611C12.9291 19.8791 14.7258 22.0553 17.4541 23.0915C17.3543 23.2988 17.2877 23.5406 17.2212 23.7824C14.3265 23.4715 12.9624 20.7427 12.8958 20.639C12.6629 20.1209 12.0641 19.9136 11.565 20.19C11.0659 20.4318 10.8663 21.0535 11.1324 21.5717C11.199 21.7444 13.0289 25.4404 17.0548 25.8549V28.9637C17.0548 29.5509 17.4873 30 18.053 30H23.8755C24.4411 30 24.8737 29.5509 24.8737 28.9637V24.8532C24.8737 24.2314 24.7406 23.6442 24.5077 23.1261C27.2027 22.0553 28.9994 19.9136 28.9994 17.4611Z" fill="#505F79"/>
</g>
<g clip-path="url(#clip1_34_1393)">
<path d="M63.6444 13.0345C60.1556 13.0345 57.2886 15.8621 57.2886 19.3794V29.3104C57.2886 29.6897 57.5995 30.0001 57.9794 30.0001H61.5718C61.9518 30.0001 62.2627 29.6897 62.2627 29.3104V19.6552C62.2627 18.8966 62.8844 18.2759 63.6444 18.2759C64.4043 18.2759 65.0261 18.8966 65.0261 19.6552V29.3104C65.0261 29.6897 65.3369 30.0001 65.7169 30.0001H69.3093C69.6893 30.0001 70.0001 29.6897 70.0001 29.3104V19.3794C70.0001 15.8966 67.1677 13.0345 63.6444 13.0345Z" fill="#505F79"/>
<path d="M54.2832 16.2759H50.6908C50.3109 16.2759 50 16.5862 50 16.9655V29.3104C50 29.6897 50.3109 30 50.6908 30H54.2832C54.6632 30 54.9741 29.6897 54.9741 29.3104V16.9655C54.9741 16.5862 54.6632 16.2759 54.2832 16.2759Z" fill="#505F79"/>
<path d="M52.487 10C51.1054 10 50 11.1034 50 12.4828C50 13.8621 51.1054 14.9655 52.487 14.9655C53.8687 14.9655 54.9741 13.8621 54.9741 12.4828C54.9741 11.1034 53.8687 10 52.487 10Z" fill="#505F79"/>
</g>
<g clip-path="url(#clip2_34_1393)">
<path d="M99.464 30C104.161 30 107.083 26.5392 107.083 22.0742C107.083 20.3908 106.809 18.8708 104.898 18.4142C105.363 17.1408 106.705 13.4575 106.705 12.2775C106.705 11.2383 106.08 10.3675 104.966 10.3675C103.19 10.3675 101.598 15.5117 101.1 16.7383C100.714 15.625 98.9073 10 97.3148 10C96.0773 10 95.4965 10.8942 95.4965 12.0192C95.4965 13.3983 96.8573 16.9725 97.3507 18.3475C97.1007 18.2575 96.8298 18.1792 96.554 18.1792C95.6223 18.1792 94.6315 19.3158 94.6315 20.2342C94.6315 20.5817 94.8265 21.07 94.9498 21.3942C93.4815 21.785 92.9165 22.7458 92.9165 24.195C92.9123 27.015 95.6357 30 99.464 30ZM103.489 14.2192C103.649 13.7383 104.329 11.7075 104.966 11.7075C105.308 11.7075 105.4 12.055 105.4 12.3325C105.4 13.0783 103.864 17.2 103.525 18.1133L102.172 17.8792L103.489 14.2192ZM96.7465 11.8875V11.8867C96.7465 11.4217 97.324 10.1017 98.589 13.7267L99.9665 17.645C99.3457 17.5942 98.864 17.5275 98.5582 17.7C98.124 16.575 96.7465 13.0242 96.7465 11.8875ZM96.6548 19.5308L96.6557 19.5317C97.8215 19.5317 99.3265 23.2267 99.3265 23.7267C99.3265 23.9258 99.1315 24.1717 98.9048 24.1717C98.0723 24.1717 95.8432 21.1675 95.8432 20.355C95.8465 20.0542 96.3482 19.5308 96.6548 19.5308ZM95.3148 22.5892C95.7682 22.5892 97.4757 24.945 97.4757 25.445C97.4757 25.6367 97.169 25.7692 97.0107 25.7692C96.3698 25.7692 96.119 25.1633 94.9773 23.7617C93.7948 24.9217 95.7932 27.1558 97.2982 27.1558C98.3365 27.1558 99.0132 26.2108 98.8107 25.515C98.9582 25.515 99.1407 25.5267 99.2765 25.4917C99.3207 26.55 99.639 27.8117 100.937 27.9017C100.937 27.8667 101.017 27.6242 101.017 27.6125C101.017 26.9325 100.595 26.3392 100.595 25.6475C100.595 24.5417 101.458 23.4717 102.334 22.8467C102.652 22.6125 103.039 22.4675 103.412 22.335C103.799 22.1908 104.209 22.0225 104.502 21.7333C104.458 21.2958 104.276 20.9092 103.83 20.9092C102.727 20.9092 99.0298 21.0658 99.0298 19.3583C99.0298 19.0967 99.034 18.8467 99.7232 18.8467C101.009 18.8467 104.273 19.1592 105.228 19.9833C105.948 20.6125 106.196 24.405 103.994 26.8075L103.992 26.8083C102.833 28.0583 101.352 28.7067 99.6248 28.7067C97.2607 28.7067 95.3932 27.4333 94.494 25.2575C93.8132 23.5625 94.6457 22.5892 95.3148 22.5892ZM100.066 21.8858C100.453 22.0075 100.851 22.0433 101.249 22.1208C100.954 22.3317 100.692 22.59 100.441 22.8667C100.329 22.535 100.193 22.2108 100.066 21.8858Z" fill="#505F79"/>
</g>
<g clip-path="url(#clip3_34_1393)">
<g clip-path="url(#clip4_34_1393)">
<path d="M149.766 10.3696C149.433 9.97097 148.866 9.87131 148.433 10.1703L146.5 11.4992C145.6 10.5358 144.333 10.0042 142.966 10.0042C140.266 10.0042 138.033 12.1969 138.033 14.9211C138.033 15.3198 138.066 15.6852 138.166 16.0507C135.833 15.5524 134.433 13.858 133.9 10.8015C133.833 10.4029 133.533 10.1039 133.133 10.0042C132.766 9.90453 132.366 10.0706 132.133 10.3696C132.066 10.4361 126.566 18.0773 134.533 24.5557C133.766 26.1836 131.466 27.5789 130.566 28.044C130.133 28.2434 129.933 28.7085 130.033 29.1736C130.133 29.6387 130.533 29.9377 131 29.9377H132.733C142.866 29.9377 147.466 24.9211 147.566 13.6919L149.666 11.6985C150.066 11.3663 150.1 10.7683 149.766 10.3696Z" fill="#505F79"/>
</g>
</g>
<path d="M188.404 13.8804L190 12.3377V12H184.472L180.532 21.9099L176.049 12H170.252V12.3377L172.117 14.6055C172.298 14.7731 172.393 15.0181 172.369 15.2648V24.1768C172.427 24.4977 172.323 24.8278 172.1 25.0611L170 27.6328V27.9663H175.954V27.6286L173.854 25.0611C173.627 24.8269 173.519 24.5027 173.565 24.1768V16.4682L178.792 27.9705H179.399L183.893 16.4682V25.6312C183.893 25.8728 183.893 25.9225 183.737 26.0808L182.12 27.6615V28H189.963V27.6623L188.405 26.1204C188.268 26.016 188.198 25.8408 188.227 25.6707V14.3301C188.198 14.1592 188.267 13.984 188.404 13.8804Z" fill="#505F79"/>
<defs>
<clipPath id="clip0_34_1393">
<rect width="18" height="20" fill="white" transform="translate(11 10)"/>
</clipPath>
<clipPath id="clip1_34_1393">
<rect width="20" height="20" fill="white" transform="translate(50 10)"/>
</clipPath>
<clipPath id="clip2_34_1393">
<rect width="20" height="20" fill="white" transform="translate(90 10)"/>
</clipPath>
<clipPath id="clip3_34_1393">
<rect width="20" height="20" fill="white" transform="translate(130 10)"/>
</clipPath>
<clipPath id="clip4_34_1393">
<rect width="20" height="19.9667" fill="white" transform="translate(130 9.97131)"/>
</clipPath>
</defs>
</svg>
